<svg width="20" height="32" viewBox="0 0 20 32" fill="none" xmlns="http://www.w3.org/2000/svg">
<g clip-path="url(#clip0_202_4)">
<path d="M6.5 0C5.66875 0 5 0.66875 5 1.5C5 2.2 5.475 2.7875 6.125 2.95C5.6375 3.45 5.11875 4.0125 4.6 4.6375C2.3875 7.29375 0 11.175 0 15.6812C0 18.4812 1.5375 20.1938 3 21.1688V22H6V20.3125C6 19.75 5.6875 19.2375 5.1875 18.9813C4.0625 18.4 3 17.4375 3 15.6875C3 12.2188 4.8625 9.0125 6.9 6.56875C7.9 5.36875 8.90625 4.39375 9.6625 3.725C9.78125 3.61875 9.89375 3.525 9.99375 3.4375C10.1 3.525 10.2062 3.625 10.325 3.725C11.0812 4.39375 12.0875 5.36875 13.0875 6.56875C13.4187 6.9625 13.7437 7.38125 14.0562 7.81875L9.9375 11.9375C9.35 12.525 9.35 13.475 9.9375 14.0562C10.525 14.6375 11.475 14.6437 12.0562 14.0562L15.6687 10.4438C16.4687 12.0625 16.9937 13.8375 16.9937 15.6812C16.9937 17.4312 15.9312 18.3938 14.8062 18.975C14.3062 19.2313 13.9937 19.7437 13.9937 20.3062V21.9937H16.9937V21.1688C18.4562 20.1938 19.9937 18.4875 19.9937 15.6812C19.9937 11.175 17.6063 7.29375 15.3938 4.6375C14.875 4.01875 14.3562 3.45 13.8687 2.95C14.5125 2.78125 14.9937 2.19375 14.9937 1.5C14.9937 0.66875 14.325 0 13.4937 0H10L6.5 0ZM3.29375 29L4.33125 27H15.675L16.7125 29H3.29375ZM16.2875 24H3.71875C2.96875 24 2.2875 24.4187 1.94375 25.0812L0.2875 28.2812C0.1 28.6438 0 29.0438 0 29.45C0 30.8625 1.1375 32 2.55 32H17.45C18.8563 32 20 30.8625 20 29.45C20 29.0438 19.9 28.6438 19.7125 28.2812L18.0562 25.0812C17.7125 24.4187 17.025 24 16.2812 24H16.2875Z" fill="white"/>
</g>
<defs>
<clipPath id="clip0_202_4">
<rect width="20" height="32" fill="white"/>
</clipPath>
</defs>
</svg>
