<svg width="86" height="86" viewBox="0 0 86 86" fill="none" xmlns="http://www.w3.org/2000/svg">
<path d="M0.773438 0.773438V11.3301H11.3301V0.773438H0.773438ZM11.3301 11.3301V21.8867H21.8867V11.3301H11.3301ZM21.8867 11.3301H32.4434V0.773438H21.8867V11.3301ZM32.4434 11.3301V21.8867H43V11.3301H32.4434ZM43 11.3301H53.5566V0.773438H43V11.3301ZM53.5566 11.3301V21.8867H64.1133V11.3301H53.5566ZM64.1133 11.3301H74.6699V0.773438H64.1133V11.3301ZM74.6699 11.3301V21.8867H85.2266V11.3301H74.6699ZM74.6699 21.8867H64.1133V32.4434H74.6699V21.8867ZM74.6699 32.4434V43H85.2266V32.4434H74.6699ZM74.6699 43H64.1133V53.5566H74.6699V43ZM74.6699 53.5566V64.1133H85.2266V53.5566H74.6699ZM74.6699 64.1133H64.1133V74.6699H74.6699V64.1133ZM74.6699 74.6699V85.2266H85.2266V74.6699H74.6699ZM64.1133 74.6699H53.5566V85.2266H64.1133V74.6699ZM53.5566 74.6699V64.1133H43V74.6699H53.5566ZM43 74.6699H32.4434V85.2266H43V74.6699ZM32.4434 74.6699V64.1133H21.8867V74.6699H32.4434ZM21.8867 74.6699H11.3301V85.2266H21.8867V74.6699ZM11.3301 74.6699V64.1133H0.773438V74.6699H11.3301ZM11.3301 64.1133H21.8867V53.5566H11.3301V64.1133ZM11.3301 53.5566V43H0.773438V53.5566H11.3301ZM11.3301 43H21.8867V32.4434H11.3301V43ZM11.3301 32.4434V21.8867H0.773438V32.4434H11.3301ZM21.8867 32.4434H32.4434V21.8867H21.8867V32.4434ZM32.4434 32.4434V43H43V32.4434H32.4434ZM43 32.4434H53.5566V21.8867H43V32.4434ZM53.5566 32.4434V43H64.1133V32.4434H53.5566ZM53.5566 43H43V53.5566H53.5566V43ZM53.5566 53.5566V64.1133H64.1133V53.5566H53.5566ZM43 53.5566H32.4434V64.1133H43V53.5566ZM32.4434 53.5566V43H21.8867V53.5566H32.4434Z" fill="white"/>
</svg>
