<svg width="20" height="20" viewBox="0 0 20 20" fill="none" xmlns="http://www.w3.org/2000/svg">
<path d="M11.707 9.707C11.5184 9.88916 11.2658 9.98995 11.0036 9.98767C10.7414 9.9854 10.4906 9.88023 10.3052 9.69482C10.1198 9.50941 10.0146 9.2586 10.0123 8.9964C10.0101 8.73421 10.1108 8.4816 10.293 8.293L14.293 4.293C14.3852 4.19749 14.4956 4.12131 14.6176 4.0689C14.7396 4.01649 14.8708 3.9889 15.0036 3.98775C15.1364 3.9866 15.2681 4.0119 15.391 4.06218C15.5139 4.11246 15.6255 4.18671 15.7194 4.28061C15.8133 4.3745 15.8875 4.48615 15.9378 4.60905C15.9881 4.73194 16.0134 4.86362 16.0123 4.9964C16.0111 5.12918 15.9835 5.2604 15.9311 5.38241C15.8787 5.50441 15.8025 5.61475 15.707 5.707L11.707 9.707Z" fill="white"/>
<path d="M11 10C10.7348 10 10.4804 9.89464 10.2929 9.70711C10.1054 9.51957 10 9.26522 10 9C10 8.73478 10.1054 8.48043 10.2929 8.29289C10.4804 8.10536 10.7348 8 11 8H15C15.2652 8 15.5196 8.10536 15.7071 8.29289C15.8946 8.48043 16 8.73478 16 9C16 9.26522 15.8946 9.51957 15.7071 9.70711C15.5196 9.89464 15.2652 10 15 10H11Z" fill="white"/>
<path d="M12 9C12 9.26522 11.8946 9.51957 11.7071 9.70711C11.5196 9.89464 11.2652 10 11 10C10.7348 10 10.4804 9.89464 10.2929 9.70711C10.1054 9.51957 10 9.26522 10 9V5C10 4.73478 10.1054 4.48043 10.2929 4.29289C10.4804 4.10536 10.7348 4 11 4C11.2652 4 11.5196 4.10536 11.7071 4.29289C11.8946 4.48043 12 4.73478 12 5V9ZM5.707 15.707C5.5184 15.8892 5.2658 15.99 5.0036 15.9877C4.7414 15.9854 4.49059 15.8802 4.30518 15.6948C4.11978 15.5094 4.01461 15.2586 4.01233 14.9964C4.01005 14.7342 4.11085 14.4816 4.293 14.293L8.293 10.293C8.38525 10.1975 8.49559 10.1213 8.6176 10.0689C8.7396 10.0165 8.87082 9.9889 9.0036 9.98775C9.13638 9.9866 9.26806 10.0119 9.39096 10.0622C9.51385 10.1125 9.6255 10.1867 9.7194 10.2806C9.81329 10.3745 9.88754 10.4861 9.93782 10.609C9.98811 10.7319 10.0134 10.8636 10.0123 10.9964C10.0111 11.1292 9.98351 11.2604 9.9311 11.3824C9.8787 11.5044 9.80251 11.6148 9.707 11.707L5.707 15.707Z" fill="white"/>
<path d="M10 15C10 15.2652 9.89464 15.5196 9.70711 15.7071C9.51957 15.8946 9.26522 16 9 16C8.73478 16 8.48043 15.8946 8.29289 15.7071C8.10536 15.5196 8 15.2652 8 15V11C8 10.7348 8.10536 10.4804 8.29289 10.2929C8.48043 10.1054 8.73478 10 9 10C9.26522 10 9.51957 10.1054 9.70711 10.2929C9.89464 10.4804 10 10.7348 10 11V15Z" fill="white"/>
<path d="M5 12C4.73478 12 4.48043 11.8946 4.29289 11.7071C4.10536 11.5196 4 11.2652 4 11C4 10.7348 4.10536 10.4804 4.29289 10.2929C4.48043 10.1054 4.73478 10 5 10H9C9.26522 10 9.51957 10.1054 9.70711 10.2929C9.89464 10.4804 10 10.7348 10 11C10 11.2652 9.89464 11.5196 9.70711 11.7071C9.51957 11.8946 9.26522 12 9 12H5Z" fill="white"/>
<path d="M1.293 2.707C1.11084 2.5184 1.01005 2.2658 1.01233 2.0036C1.01461 1.7414 1.11978 1.49059 1.30518 1.30518C1.49059 1.11977 1.7414 1.01461 2.0036 1.01233C2.2658 1.01005 2.5184 1.11084 2.707 1.293L18.707 17.293C18.8892 17.4816 18.99 17.7342 18.9877 17.9964C18.9854 18.2586 18.8802 18.5094 18.6948 18.6948C18.5094 18.8802 18.2586 18.9854 17.9964 18.9877C17.7342 18.99 17.4816 18.8892 17.293 18.707L1.293 2.707Z" fill="white"/>
</svg>
