<svg width="24" height="24" viewBox="0 0 24 24" fill="none" xmlns="http://www.w3.org/2000/svg">
<path d="M19 5L15.5 8.5M13.5 6.5L17.5 10.5M22 6.687L17.797 10.89C16.9851 11.7019 15.8891 12.166 14.741 12.184L14.398 12.189C14.0994 12.1934 13.8048 12.2581 13.5317 12.379C13.2587 12.5 13.0129 12.6748 12.809 12.893L4.772 21.493C4.62547 21.6509 4.4486 21.7776 4.25198 21.8655C4.05536 21.9535 3.84302 22.0009 3.62766 22.0049C3.4123 22.0089 3.19834 21.9694 2.99858 21.8889C2.79882 21.8083 2.61736 21.6883 2.46505 21.536C2.31274 21.3836 2.19271 21.2022 2.11214 21.0024C2.03156 20.8027 1.9921 20.5887 1.99611 20.3733C2.00012 20.158 2.04752 19.9456 2.13547 19.749C2.22343 19.5524 2.35013 19.3755 2.508 19.229L11.106 11.19C11.546 10.778 11.801 10.205 11.81 9.601L11.816 9.259C11.8338 8.11058 12.2979 7.01417 13.11 6.202L17.312 2" stroke="white" stroke-width="1.5" stroke-linecap="round" stroke-linejoin="round"/>
</svg>
