<svg width="38" height="38" viewBox="0 0 38 38" fill="none" xmlns="http://www.w3.org/2000/svg">
<path d="M14.25 9.5H23.75M19 4.75V17.4167M12.6667 25.3333L10.3756 26.4797C10.1126 26.6111 9.89144 26.8131 9.7368 27.0631C9.58215 27.3131 9.50016 27.6012 9.50001 27.8952V31.6667H28.5V27.8952C28.4998 27.6012 28.4179 27.3131 28.2632 27.0631C28.1086 26.8131 27.8874 26.6111 27.6244 26.4797L25.3333 25.3333H12.6667ZM13.4583 25.3333C12.4667 25.3331 11.4932 25.0668 10.6395 24.5622C9.78584 24.0576 9.08321 23.3331 8.60493 22.4644C8.12665 21.5957 7.89025 20.6145 7.92038 19.6233C7.9505 18.6321 8.24607 17.6671 8.77623 16.829C9.30639 15.991 10.0517 15.3105 10.9345 14.8587C11.8172 14.4068 12.8051 14.2001 13.7949 14.2602C14.7848 14.3202 15.7404 14.6447 16.5621 15.1999C17.3838 15.7551 18.0414 16.5207 18.4664 17.4167H19.5336C19.9586 16.5207 20.6162 15.7551 21.4379 15.1999C22.2596 14.6447 23.2152 14.3202 24.2051 14.2602C25.1949 14.2001 26.1828 14.4068 27.0655 14.8587C27.9483 15.3105 28.6936 15.991 29.2238 16.829C29.7539 17.6671 30.0495 18.6321 30.0796 19.6233C30.1098 20.6145 29.8734 21.5957 29.3951 22.4644C28.9168 23.3331 28.2142 24.0576 27.3605 24.5622C26.5068 25.0668 25.5334 25.3331 24.5417 25.3333H13.4583Z" stroke="white" stroke-width="2" stroke-linecap="round" stroke-linejoin="round"/>
</svg>
