<svg width="14" height="14" viewBox="0 0 14 14" fill="none" xmlns="http://www.w3.org/2000/svg">
<path d="M3.572 10.594C3.73 9.764 4.878 8.811 5.689 8.176C7.634 6.654 7.454 5.352 7.136 4.999L5.193 6.11C4.96774 6.23881 4.70758 6.29326 4.44957 6.26561C4.19156 6.23796 3.94885 6.12961 3.756 5.956C3.54453 5.76564 3.40541 5.50801 3.36221 5.22678C3.31901 4.94556 3.37441 4.65805 3.519 4.413L4.983 1.93L4.42 0.657999C5.35 0.327999 7.921 0.502999 8.938 1.293C10.208 2.282 11.832 3.782 10.491 10.593M2.42 11.256C2.4844 11.0632 2.60779 10.8956 2.77271 10.7768C2.93764 10.6579 3.13574 10.594 3.339 10.594H10.661C11.078 10.594 11.448 10.861 11.581 11.256L12.328 13.5H1.672L2.42 11.256Z" stroke="white" stroke-linecap="round" stroke-linejoin="round"/>
<path d="M7.773 3.971C7.681 4.37411 7.45934 4.73593 7.142 5.001" stroke="white" stroke-linecap="round" stroke-linejoin="round"/>
</svg>
