<svg width="14" height="14" viewBox="0 0 14 14" fill="none" xmlns="http://www.w3.org/2000/svg">
<path d="M2.61 11.35C2.67145 11.1651 2.78949 11.0042 2.94741 10.8901C3.10534 10.7759 3.29515 10.7143 3.49 10.714H10.51C10.909 10.714 11.264 10.97 11.39 11.349L12.107 13.5H1.893L2.61 11.35ZM4.679 2.821C4.679 3.43657 4.92353 4.02692 5.35881 4.46219C5.79408 4.89747 6.38443 5.142 7 5.142C7.61557 5.142 8.20592 4.89747 8.6412 4.46219C9.07647 4.02692 9.321 3.43657 9.321 2.821C9.321 2.20543 9.07647 1.61508 8.6412 1.17981C8.20592 0.744533 7.61557 0.5 7 0.5C6.38443 0.5 5.79408 0.744533 5.35881 1.17981C4.92353 1.61508 4.679 2.20543 4.679 2.821Z" stroke="white" stroke-linecap="round" stroke-linejoin="round"/>
<path d="M3.75 10.714C4.746 9.719 5.408 6.59 5.607 5.143M10.25 10.714C9.254 9.72 8.592 6.59 8.393 5.143M4.214 5.143H9.786" stroke="white" stroke-linecap="round" stroke-linejoin="round"/>
</svg>
