<svg width="24" height="24" viewBox="0 0 24 24" fill="none" xmlns="http://www.w3.org/2000/svg">
<path d="M21.436 7.586L17.438 3.566C16.686 2.81 15.375 2.802 14.608 3.56C14.412 3.756 14.258 3.996 14.19 4.189C13.537 5.551 12.836 6.404 11.936 6.916L11.719 7.021C10.751 7.506 9.434 8 7 8C6.734 8 6.479 8.052 6.234 8.152C5.74514 8.35747 5.35657 8.74676 5.152 9.236C4.95296 9.72485 4.95296 10.2721 5.152 10.761C5.256 11.01 5.402 11.232 5.587 11.412L8.822 14.647L5 20L10.352 16.178L13.579 19.405C13.765 19.594 13.985 19.744 14.235 19.846C14.4773 19.948 14.7376 20.0005 15.0005 20.0005C15.2634 20.0005 15.5237 19.948 15.766 19.846C16.0089 19.7475 16.2295 19.6014 16.415 19.4162C16.6005 19.2311 16.7471 19.0107 16.846 18.768C16.949 18.526 17.001 18.261 17.001 18C17.001 15.564 17.495 14.248 17.979 13.279C18.475 12.287 19.348 11.531 20.733 10.865C21.004 10.761 21.243 10.609 21.444 10.408C21.8148 10.0315 22.022 9.52382 22.0205 8.99535C22.019 8.46689 21.809 7.96039 21.436 7.586ZM16.188 12.387C15.369 14.03 15 15.757 14.993 17.991L7 10C9.139 10 10.814 9.665 12.396 8.916L12.631 8.811C14.03 8.112 15.099 6.918 16.019 4.977L19.943 9.028C18.08 9.921 16.887 10.988 16.188 12.387Z" fill="white"/>
</svg>
