<svg width="50" height="50" viewBox="0 0 50 50" fill="none" xmlns="http://www.w3.org/2000/svg">
<g clip-path="url(#clip0_202_8)">
<path d="M25 9.375C26.2432 9.375 27.4355 8.88114 28.3146 8.00206C29.1936 7.12299 29.6875 5.9307 29.6875 4.6875C29.6875 3.4443 29.1936 2.25201 28.3146 1.37294C27.4355 0.49386 26.2432 0 25 0C23.7568 0 22.5645 0.49386 21.6854 1.37294C20.8064 2.25201 20.3125 3.4443 20.3125 4.6875C20.3125 5.9307 20.8064 7.12299 21.6854 8.00206C22.5645 8.88114 23.7568 9.375 25 9.375ZM15.7031 8.59375C13.9356 8.59375 12.6465 9.84375 12.2266 11.2207C11.4453 13.7793 9.06251 15.6348 6.25001 15.6348C5.27344 15.6348 4.35547 15.4102 3.54493 15.0195C2.80274 14.6582 1.91407 14.6973 1.20118 15.1367C0.0683647 15.8301 -0.302729 17.2949 0.361333 18.4473L9.53126 34.375H14.9414L6.83594 20.3027C10.791 20.0879 14.1895 17.7734 15.9277 14.4629C18.0762 17.0801 21.3379 18.75 24.9902 18.75C28.6426 18.75 31.9043 17.0801 34.0527 14.4629C35.791 17.7832 39.1895 20.0977 43.1445 20.3027L35.0586 34.375H40.4688L49.6387 18.4473C50.3027 17.3047 49.9316 15.8398 48.7988 15.1465C48.0859 14.707 47.1973 14.668 46.4551 15.0293C45.6348 15.4199 44.7266 15.6445 43.75 15.6445C40.9375 15.6445 38.5547 13.7891 37.7734 11.2305C37.3535 9.84375 36.0645 8.59375 34.2969 8.59375C32.8809 8.59375 31.7285 9.42383 31.1328 10.4785C29.9219 12.627 27.627 14.0625 25 14.0625C22.3731 14.0625 20.0781 12.6172 18.8672 10.4785C18.2715 9.42383 17.1289 8.59375 15.7031 8.59375ZM13.0078 42.1875H36.9922L38.6133 45.3125H11.3965L13.0176 42.1875H13.0078ZM40.7129 39.1895C40.1758 38.1543 39.1016 37.5 37.9395 37.5H12.0606C10.8887 37.5 9.82422 38.1543 9.28711 39.1895L6.69922 44.1895C6.40626 44.7559 6.25001 45.3809 6.25001 46.0156C6.25001 48.2129 8.02735 50 10.2344 50H39.7656C41.9629 50 43.75 48.2227 43.75 46.0156C43.75 45.3809 43.5938 44.7559 43.3008 44.1895L40.7129 39.1895Z" fill="white"/>
</g>
<defs>
<clipPath id="clip0_202_8">
<rect width="50" height="50" fill="white"/>
</clipPath>
</defs>
</svg>
